<svg width="512" height="512" viewBox="0 0 512 512" xmlns="http://www.w3.org/2000/svg">
  <!-- Fundo Preto Arredondado -->
  <rect width="512" height="512" rx="100" fill="black" />

  <!-- Grupo com Estilo Branco e Bordas Arredondadas -->
  <g fill="none" stroke="white" stroke-width="12" stroke-linecap="round" stroke-linejoin="round">
    <!-- Capa externa (Bordas mais arredondadas agora) -->
    <path d="M120 170V370H230C240 385 272 385 282 370H392V170H120Z" />
    
    <!-- Curvas das páginas -->
    <path d="M150 155C185 145 220 145 256 165V350C220 330 185 330 150 340V155Z" />
    <path d="M362 155C327 145 292 145 256 165V350C292 330 327 330 362 340V155Z" />

    <!-- A Cruz (Com o ponto central técnico e traços arredondados) -->
    <g transform="translate(0, -5)">
      <path d="M256 185V275" stroke-width="14" />
      <path d="M220 225H292" stroke-width="14" />
      <circle cx="256" cy="225" r="6" fill="white" stroke="none" />
    </g>
  </g>
</svg>
